# xmcd
#
# Track frame offsets:
# 150
# 21679
# 41521
# 61187
#
# Disc length: 1175 seconds
#
# Revision: 1
# Processed by: cddbd v1.5.2PL0 Copyright (c) Steve Scherf et al.
# Submitted via: CedeCatalogueitor 2.6.0.6 http://personales.ya.com/cdcatalogueitor
#
DISCID=30049504
DTITLE=CatPeople - Reel and Wolf
DYEAR=1900
DGENRE=
TTITLE0=Party People
TTITLE1=Looks Like Dogs
TTITLE2=Good Bye Angel
TTITLE3=Mexican Life
EXTD=
EXTT0=
EXTT1=
EXTT2=
EXTT3=
PLAYORDER=
